<svg width="1018" height="381" viewBox="0 0 1018 381" fill="none" xmlns="http://www.w3.org/2000/svg">
<path d="M130.429 47.7468C115.303 74.0155 90.7571 116.541 75.9002 142.217C61.0433 167.948 48.7702 189.318 48.6087 189.802C48.4472 190.233 51.0311 188.564 54.4223 186.034C77.7304 168.755 106.421 153.844 134.036 144.747C140.657 142.54 142.003 141.894 142.81 140.602C143.295 139.795 146.901 133.605 150.831 126.822C154.706 120.093 158.044 114.603 158.259 114.603C158.474 114.603 161.274 119.232 164.503 124.83C170.317 135.004 170.371 135.112 171.986 134.843C191.472 131.667 201.107 130.752 218.871 130.375L233.459 130.052L224.254 114.065C183.667 43.5481 158.474 0.000202197 158.259 0.000202197C158.098 0.000202197 145.609 21.4781 130.429 47.7468Z" fill="url(#paint0_linear_2534_84)"/>
<path d="M222.853 137.534C182.481 140.334 151.099 148.408 118.155 164.341C89.3567 178.283 66.2639 194.755 43.8709 217.148C27.8836 233.135 15.5567 248.746 3.98337 267.694C1.77637 271.247 0 274.369 0 274.584C0 274.799 14.7492 275.015 32.7282 275.015H65.4565L66.6946 272.861C68.8477 269.04 78.86 255.313 84.8889 247.938C91.5637 239.756 109.597 221.347 117.24 214.887C138.018 197.285 161.004 182.913 185.604 172.254L190.61 170.101L191.955 172.362C192.709 173.6 206.328 197.124 222.208 224.63L251.114 274.692L283.681 274.53C301.606 274.476 316.301 274.315 316.409 274.207C316.517 274.1 301.175 247.346 282.389 214.78C263.548 182.159 248.099 155.191 247.992 154.868C247.776 153.683 266.832 151.53 283.142 150.938C292.778 150.561 308.819 151.261 320.231 152.607C324.16 153.037 327.498 153.306 327.659 153.199C327.982 152.822 313.61 148.3 305.212 146.147C283.304 140.441 263.118 137.804 239.271 137.534C231.574 137.481 224.199 137.481 222.853 137.534Z" fill="url(#paint1_linear_2534_84)"/>
<path d="M350.105 142.217C350.266 143.186 350.535 147.008 350.751 150.722C351.181 159.173 351.235 159.119 344.507 157.235L339.77 155.89L339.124 152.767C338.424 149.645 338.047 148.946 336.432 148.407C335.786 148.192 335.571 148.73 335.463 151.153C335.356 152.983 335.033 154.329 334.602 154.544C334.171 154.759 333.956 155.405 334.064 155.89C334.225 156.428 333.579 157.935 332.664 159.281C331.211 161.434 331.157 161.757 332.018 162.08C333.472 162.618 333.472 162.618 336.378 160.357L339.124 158.15L343.538 160.088C347.575 161.811 348.759 162.672 348.813 163.695C348.813 163.964 346.283 166.817 343.215 170.154C340.093 173.492 337.724 176.399 337.832 176.614C338.37 177.475 341.115 176.991 342.999 175.699C344.668 174.568 345.422 174.407 347.198 174.676C348.974 174.945 349.351 174.891 349.351 174.138C349.351 173.653 349.136 173.276 348.813 173.276C348.544 173.276 348.275 173.061 348.275 172.738C348.275 171.823 351.181 170.693 353.012 170.962C354.304 171.177 354.734 171.069 354.734 170.424C354.734 169.993 354.465 169.508 354.142 169.401C353.335 169.132 357.695 166.279 358.933 166.279C359.471 166.279 361.355 166.763 363.132 167.355C367.223 168.809 368.999 168.647 368.999 166.817C368.999 165.687 368.461 165.31 364.693 163.856C361.032 162.457 360.279 161.918 359.471 160.357C357.964 157.181 357.802 156.159 358.825 156.266C360.44 156.374 360.279 154.974 358.61 154.382C357.533 154.006 356.78 153.252 356.403 152.175C355.649 150.022 355.649 150.13 356.887 150.13C358.556 150.13 358.179 148.515 356.403 147.923C355.165 147.492 354.573 146.739 353.873 144.855C352.742 141.732 352.312 141.194 350.912 140.817C349.89 140.548 349.836 140.71 350.105 142.217Z" fill="#C04141"/>
<path d="M453.028 77.296C442.828 72.196 429.16 69.646 412.024 69.646C385.504 69.646 372.244 79.438 372.244 99.022C372.244 108.406 380.506 118.3 397.03 128.704C410.698 137.476 421.408 144.412 429.16 149.512C436.912 154.612 441.604 157.978 443.236 159.61C459.76 174.094 468.022 190.822 468.022 209.794C468.022 231.01 459.862 247.636 443.542 259.672C429.67 269.872 413.044 274.972 393.664 274.972C374.284 274.972 356.536 271.402 340.42 264.262L344.398 230.296C359.698 238.864 376.528 243.148 394.888 243.148C422.02 243.148 435.586 231.214 435.586 207.346C435.586 197.962 427.324 187.762 410.8 176.746C395.908 166.75 384.586 159.1 376.834 153.796C369.286 148.492 365.206 145.636 364.594 145.228C348.274 131.152 340.114 115.75 340.114 99.022C340.114 80.05 347.458 64.852 362.146 53.428C375.406 43.228 392.134 38.128 412.33 38.128C429.058 38.128 444.46 40.78 458.536 46.084L453.028 77.296ZM545.416 269.158H511.756V42.718H545.416V269.158ZM719.109 180.418L682.083 86.17L644.751 180.418H719.109ZM790.101 270.382H754.605L731.349 211.936H632.205L608.643 270.382H573.453L666.477 42.106H699.831L790.101 270.382ZM991.471 270.382H954.751L856.831 99.328V270.382H823.783V42.106H858.973L958.423 215.914V42.106H991.471V270.382Z" fill="white"/>
<path d="M13 368V334.928H0.208V331.6H29.64V334.928H16.848V368H13ZM57.1074 368V331.6H70.7314C73.8167 331.6 76.4687 332.103 78.6874 333.108C80.906 334.079 82.6047 335.5 83.7834 337.372C84.9967 339.209 85.6034 341.445 85.6034 344.08C85.6034 346.645 84.9967 348.864 83.7834 350.736C82.6047 352.573 80.906 353.995 78.6874 355C76.4687 355.971 73.8167 356.456 70.7314 356.456H59.2394L60.9554 354.688V368H57.1074ZM81.9634 368L72.6034 354.792H76.7634L86.1754 368H81.9634ZM60.9554 355L59.2394 353.18H70.6274C74.2674 353.18 77.0234 352.383 78.8954 350.788C80.802 349.193 81.7554 346.957 81.7554 344.08C81.7554 341.168 80.802 338.915 78.8954 337.32C77.0234 335.725 74.2674 334.928 70.6274 334.928H59.2394L60.9554 333.108V355ZM110.181 368L126.822 331.6H130.617L147.258 368H143.202L127.914 333.836H129.474L114.185 368H110.181ZM116.733 358.276L117.877 355.156H139.042L140.186 358.276H116.733ZM183.068 368L166.948 331.6H171.108L186.188 365.868H183.9L199.084 331.6H202.984L186.864 368H183.068ZM233.019 347.876H252.259V351.152H233.019V347.876ZM233.435 364.672H255.327V368H229.587V331.6H254.547V334.928H233.435V364.672ZM285.692 368V331.6H289.54V364.672H309.924V368H285.692ZM347.263 368.312C344.559 368.312 341.959 367.879 339.463 367.012C337.002 366.111 335.095 364.967 333.743 363.58L335.251 360.616C336.534 361.864 338.25 362.921 340.399 363.788C342.583 364.62 344.871 365.036 347.263 365.036C349.551 365.036 351.406 364.759 352.827 364.204C354.283 363.615 355.34 362.835 355.999 361.864C356.692 360.893 357.039 359.819 357.039 358.64C357.039 357.219 356.623 356.075 355.791 355.208C354.994 354.341 353.936 353.665 352.619 353.18C351.302 352.66 349.846 352.209 348.251 351.828C346.656 351.447 345.062 351.048 343.467 350.632C341.872 350.181 340.399 349.592 339.047 348.864C337.73 348.136 336.655 347.183 335.823 346.004C335.026 344.791 334.627 343.213 334.627 341.272C334.627 339.469 335.095 337.823 336.031 336.332C337.002 334.807 338.475 333.593 340.451 332.692C342.427 331.756 344.958 331.288 348.043 331.288C350.088 331.288 352.116 331.583 354.127 332.172C356.138 332.727 357.871 333.507 359.327 334.512L358.027 337.58C356.467 336.54 354.803 335.777 353.035 335.292C351.302 334.807 349.62 334.564 347.991 334.564C345.807 334.564 344.004 334.859 342.583 335.448C341.162 336.037 340.104 336.835 339.411 337.84C338.752 338.811 338.423 339.92 338.423 341.168C338.423 342.589 338.822 343.733 339.619 344.6C340.451 345.467 341.526 346.143 342.843 346.628C344.195 347.113 345.668 347.547 347.263 347.928C348.858 348.309 350.435 348.725 351.995 349.176C353.59 349.627 355.046 350.216 356.363 350.944C357.715 351.637 358.79 352.573 359.587 353.752C360.419 354.931 360.835 356.473 360.835 358.38C360.835 360.148 360.35 361.795 359.379 363.32C358.408 364.811 356.918 366.024 354.907 366.96C352.931 367.861 350.383 368.312 347.263 368.312ZM434.308 368.312C431.951 368.312 429.854 367.931 428.016 367.168C426.179 366.371 424.723 365.279 423.648 363.892C422.608 362.505 422.088 360.893 422.088 359.056C422.088 357.496 422.435 356.075 423.128 354.792C423.822 353.475 424.931 352.192 426.456 350.944C428.016 349.661 430.079 348.327 432.644 346.94C434.828 345.727 436.527 344.687 437.74 343.82C438.988 342.919 439.872 342.069 440.392 341.272C440.912 340.44 441.172 339.556 441.172 338.62C441.172 337.268 440.704 336.176 439.768 335.344C438.867 334.512 437.567 334.096 435.868 334.096C434.031 334.096 432.61 334.564 431.604 335.5C430.599 336.401 430.096 337.58 430.096 339.036C430.096 339.764 430.2 340.457 430.408 341.116C430.651 341.775 431.084 342.503 431.708 343.3C432.367 344.097 433.268 345.103 434.412 346.316L453.652 366.128L451.52 368.572L431.448 347.928C430.235 346.645 429.264 345.536 428.536 344.6C427.843 343.629 427.358 342.711 427.08 341.844C426.803 340.977 426.664 340.059 426.664 339.088C426.664 337.528 427.028 336.176 427.756 335.032C428.519 333.853 429.594 332.952 430.98 332.328C432.367 331.669 433.996 331.34 435.868 331.34C437.567 331.34 439.04 331.635 440.288 332.224C441.571 332.779 442.559 333.593 443.252 334.668C443.98 335.743 444.344 337.043 444.344 338.568C444.344 339.885 444.015 341.116 443.356 342.26C442.732 343.404 441.692 344.531 440.236 345.64C438.78 346.715 436.804 347.928 434.308 349.28C432.124 350.493 430.391 351.603 429.108 352.608C427.86 353.613 426.976 354.601 426.456 355.572C425.936 356.508 425.676 357.548 425.676 358.692C425.676 360.009 426.04 361.171 426.768 362.176C427.531 363.147 428.571 363.909 429.888 364.464C431.24 364.984 432.783 365.244 434.516 365.244C436.943 365.244 439.11 364.741 441.016 363.736C442.923 362.731 444.518 361.205 445.8 359.16C447.118 357.115 448.071 354.549 448.66 351.464L451.624 352.4C450.966 355.867 449.839 358.779 448.244 361.136C446.65 363.493 444.674 365.279 442.316 366.492C439.959 367.705 437.29 368.312 434.308 368.312ZM516.503 368V331.6H519.675L536.315 359.992H534.651L551.135 331.6H554.307V368H550.615V337.372H551.499L536.315 363.372H534.495L519.207 337.372H520.195V368H516.503ZM581.663 368L598.303 331.6H602.099L618.739 368H614.683L599.395 333.836H600.955L585.667 368H581.663ZM588.215 358.276L589.359 355.156H610.523L611.667 358.276H588.215ZM646.08 368V331.6H649.252L674.368 363.216H672.704V331.6H676.5V368H673.328L648.264 336.384H649.928V368H646.08ZM709.701 368V331.6H723.325C726.411 331.6 729.063 332.103 731.281 333.108C733.5 334.079 735.199 335.5 736.377 337.372C737.591 339.209 738.197 341.445 738.197 344.08C738.197 346.645 737.591 348.864 736.377 350.736C735.199 352.573 733.5 353.995 731.281 355C729.063 356.005 726.411 356.508 723.325 356.508H711.833L713.549 354.688V368H709.701ZM713.549 355L711.833 353.128H723.221C726.861 353.128 729.617 352.348 731.489 350.788C733.396 349.193 734.349 346.957 734.349 344.08C734.349 341.168 733.396 338.915 731.489 337.32C729.617 335.725 726.861 334.928 723.221 334.928H711.833L713.549 333.108V355ZM784.257 368.312C781.519 368.312 778.971 367.861 776.613 366.96C774.291 366.024 772.263 364.724 770.529 363.06C768.831 361.361 767.496 359.403 766.525 357.184C765.589 354.931 765.121 352.469 765.121 349.8C765.121 347.131 765.589 344.687 766.525 342.468C767.496 340.215 768.831 338.256 770.529 336.592C772.263 334.893 774.291 333.593 776.613 332.692C778.936 331.756 781.484 331.288 784.257 331.288C786.996 331.288 789.527 331.756 791.849 332.692C794.172 333.593 796.183 334.876 797.881 336.54C799.615 338.204 800.949 340.163 801.885 342.416C802.856 344.669 803.341 347.131 803.341 349.8C803.341 352.469 802.856 354.931 801.885 357.184C800.949 359.437 799.615 361.396 797.881 363.06C796.183 364.724 794.172 366.024 791.849 366.96C789.527 367.861 786.996 368.312 784.257 368.312ZM784.257 364.88C786.441 364.88 788.452 364.516 790.289 363.788C792.161 363.025 793.773 361.968 795.125 360.616C796.512 359.229 797.587 357.635 798.349 355.832C799.112 353.995 799.493 351.984 799.493 349.8C799.493 347.616 799.112 345.623 798.349 343.82C797.587 341.983 796.512 340.388 795.125 339.036C793.773 337.649 792.161 336.592 790.289 335.864C788.452 335.101 786.441 334.72 784.257 334.72C782.073 334.72 780.045 335.101 778.173 335.864C776.301 336.592 774.672 337.649 773.285 339.036C771.933 340.388 770.859 341.983 770.061 343.82C769.299 345.623 768.917 347.616 768.917 349.8C768.917 351.949 769.299 353.943 770.061 355.78C770.859 357.617 771.933 359.229 773.285 360.616C774.672 361.968 776.301 363.025 778.173 363.788C780.045 364.516 782.073 364.88 784.257 364.88ZM840.437 368L828.165 331.6H832.117L843.609 365.868H841.633L853.489 331.6H857.025L868.725 365.868H866.853L878.449 331.6H882.141L869.869 368H865.813L854.633 335.5H855.673L844.441 368H840.437ZM913.949 347.876H933.189V351.152H913.949V347.876ZM914.365 364.672H936.257V368H910.517V331.6H935.477V334.928H914.365V364.672ZM966.622 368V331.6H980.246C983.331 331.6 985.983 332.103 988.202 333.108C990.421 334.079 992.119 335.5 993.298 337.372C994.511 339.209 995.118 341.445 995.118 344.08C995.118 346.645 994.511 348.864 993.298 350.736C992.119 352.573 990.421 353.995 988.202 355C985.983 355.971 983.331 356.456 980.246 356.456H968.754L970.47 354.688V368H966.622ZM991.478 368L982.118 354.792H986.278L995.69 368H991.478ZM970.47 355L968.754 353.18H980.142C983.782 353.18 986.538 352.383 988.41 350.788C990.317 349.193 991.27 346.957 991.27 344.08C991.27 341.168 990.317 338.915 988.41 337.32C986.538 335.725 983.782 334.928 980.142 334.928H968.754L970.47 333.108V355Z" fill="white"/>
<defs>
<linearGradient id="paint0_linear_2534_84" x1="223.819" y1="189.87" x2="-24.1561" y2="18.7267" gradientUnits="userSpaceOnUse">
<stop stop-color="#D45454"/>
<stop offset="1" stop-color="#710101"/>
</linearGradient>
<linearGradient id="paint1_linear_2534_84" x1="310.579" y1="275.015" x2="142.152" y2="-9.4604" gradientUnits="userSpaceOnUse">
<stop stop-color="#D45454"/>
<stop offset="1" stop-color="#710101"/>
</linearGradient>
</defs>
</svg>
